<svg xmlns="http://www.w3.org/2000/svg" viewBox="0 0 52.917 52.917" height="200" width="200"><path d="M2.547 13.298h2.096v12.76H2.547zm0-4.967h2.096v2.654H2.547zm17.089 10.025v7.702H17.54v-7.633q0-1.812-.706-2.712-.707-.9-2.12-.9-1.697 0-2.677 1.083-.98 1.082-.98 2.95v7.212H8.95v-12.76h2.108v1.982q.751-1.15 1.765-1.72 1.026-.57 2.359-.57 2.199 0 3.326 1.368 1.128 1.355 1.128 3.998zm14.788 0v7.702h-2.096v-7.633q0-1.812-.706-2.712-.707-.9-2.12-.9-1.697 0-2.677 1.083-.98 1.082-.98 2.95v7.212h-2.107v-12.76h2.107v1.982q.752-1.15 1.766-1.72 1.026-.57 2.359-.57 2.198 0 3.326 1.368 1.128 1.355 1.128 3.998zm9.126-3.588q-1.686 0-2.666 1.321-.98 1.31-.98 3.6t.969 3.612q.98 1.31 2.677 1.31 1.675 0 2.654-1.321.98-1.322.98-3.6 0-2.268-.98-3.59-.98-1.332-2.654-1.332zm0-1.778q2.734 0 4.295 1.778 1.56 1.777 1.56 4.921 0 3.133-1.56 4.922-1.56 1.777-4.295 1.777-2.746 0-4.307-1.777-1.55-1.789-1.55-4.922 0-3.144 1.55-4.921 1.561-1.778 4.307-1.778z" aria-label="inno" fill="#e40000"/><g style="line-height:1.25"><path d="M6.984 29.725v10.999H8.65q2.85 0 4.346-1.413 1.51-1.413 1.51-4.105 0-2.68-1.498-4.08-1.497-1.401-4.358-1.401zM2.335 26.21h4.902q4.105 0 6.11.592 2.016.58 3.453 1.98 1.267 1.22 1.883 2.813.616 1.594.616 3.61 0 2.04-.616 3.646-.616 1.594-1.883 2.813-1.45 1.401-3.478 1.993-2.028.58-6.085.58H2.335zm26.768 7.27q-1.437 0-2.198 1.038-.748 1.026-.748 2.97 0 1.944.748 2.982.76 1.026 2.198 1.026 1.412 0 2.16-1.026.75-1.038.75-2.982 0-1.944-.75-2.97-.748-1.038-2.16-1.038zm0-3.091q3.489 0 5.445 1.883 1.968 1.884 1.968 5.216 0 3.332-1.968 5.216-1.956 1.883-5.445 1.883-3.502 0-5.482-1.883-1.968-1.884-1.968-5.216 0-3.332 1.968-5.216 1.98-1.883 5.482-1.883zm21.478.748v3.526q-.88-.604-1.774-.894-.882-.29-1.836-.29-1.81 0-2.825 1.063-1.002 1.05-1.002 2.946 0 1.896 1.002 2.958 1.014 1.05 2.825 1.05 1.015 0 1.92-.301.918-.302 1.69-.894v3.538q-1.014.374-2.064.555-1.038.193-2.089.193-3.658 0-5.723-1.871-2.064-1.884-2.064-5.228t2.064-5.216q2.065-1.883 5.723-1.883 1.063 0 2.089.193 1.038.181 2.064.555z" aria-label="Doc"/></g></svg>